<svg width="816" height="320" xmlns="http://www.w3.org/2000/svg" xmlns:xlink="http://www.w3.org/1999/xlink" xml:space="preserve" overflow="hidden"><defs><clipPath id="clip0"><rect x="872" y="560" width="816" height="320"/></clipPath></defs><g clip-path="url(#clip0)" transform="translate(-872 -560)"><path d="M345.193 118.895 1159.34 118.895 1159.34 433.149 345.193 433.149Z" stroke="#000000" stroke-width="0.883978" stroke-linecap="square" stroke-linejoin="miter" stroke-miterlimit="8" stroke-dasharray="2.65193 0.883978" stroke-opacity="1" fill="#E7E6E6" fill-rule="nonzero" fill-opacity="1" transform="matrix(1.00119 0 0 1 526.837 441.547)"/><path d="M352.265 125.967 740.331 125.967 740.331 395.58 352.265 395.58Z" stroke="#000000" stroke-width="0.883978" stroke-linecap="square" stroke-linejoin="miter" stroke-miterlimit="8" stroke-dasharray="2.65193 0.883978" stroke-opacity="1" fill="#7F7F7F" fill-rule="nonzero" fill-opacity="1" transform="matrix(1.00119 0 0 1 526.837 441.547)"/><path d="M357.127 152.486 535.249 152.486 535.249 364.641 357.127 364.641Z" stroke="#000000" stroke-width="0.883978" stroke-linecap="square" stroke-linejoin="miter" stroke-miterlimit="8" stroke-dasharray="2.65193 0.883978" stroke-opacity="1" fill="#A6A6A6" fill-rule="nonzero" fill-opacity="1" transform="matrix(1.00119 0 0 1 526.837 441.547)"/><path d="M363.757 182.099 530.387 182.099 530.387 312.928 363.757 312.928Z" stroke="#000000" stroke-width="0.883978" stroke-linecap="square" stroke-linejoin="miter" stroke-miterlimit="8" stroke-dasharray="2.65193 0.883978" stroke-opacity="1" fill="#D9D9D9" fill-rule="nonzero" fill-opacity="1" transform="matrix(1.00119 0 0 1 526.837 441.547)"/><text fill="#000000" fill-opacity="1" font-family="Calibri,Calibri_MSFontService,sans-serif" font-style="normal" font-variant="normal" font-weight="700" font-stretch="normal" font-size="36" text-anchor="start" direction="ltr" writing-mode="lr-tb" unicode-bidi="normal" text-decoration="none" transform="matrix(0.442516 0 0 0.441989 945.556 615)">Variety 1</text><path d="M370.829 207.293 444.641 207.293 444.641 307.182 370.829 307.182Z" stroke="#000000" stroke-width="0.883978" stroke-linecap="square" stroke-linejoin="miter" stroke-miterlimit="8" stroke-dasharray="2.65193 0.883978" stroke-opacity="1" fill="#FFFFFF" fill-rule="nonzero" fill-opacity="1" transform="matrix(1.00119 0 0 1 526.837 441.547)"/><text fill="#000000" fill-opacity="1" font-family="Calibri,Calibri_MSFontService,sans-serif" font-style="normal" font-variant="normal" font-weight="400" font-stretch="normal" font-size="36" text-anchor="start" direction="ltr" writing-mode="lr-tb" unicode-bidi="normal" text-decoration="none" transform="matrix(0.442516 0 0 0.441989 920.204 663)">Data</text><text fill="#000000" fill-opacity="1" font-family="Calibri,Calibri_MSFontService,sans-serif" font-style="normal" font-variant="normal" font-weight="400" font-stretch="normal" font-size="36" text-anchor="start" direction="ltr" writing-mode="lr-tb" unicode-bidi="normal" text-decoration="none" transform="matrix(0.442516 0 0 0.441989 904.716 702)">L</text><text fill="#000000" fill-opacity="1" font-family="Calibri,Calibri_MSFontService,sans-serif" font-style="normal" font-variant="normal" font-weight="400" font-stretch="normal" font-size="36" text-anchor="start" direction="ltr" writing-mode="lr-tb" unicode-bidi="normal" text-decoration="none" transform="matrix(0.442516 0 0 0.441989 911.464 702)">-</text><text fill="#000000" fill-opacity="1" font-family="Calibri,Calibri_MSFontService,sans-serif" font-style="normal" font-variant="normal" font-weight="400" font-stretch="normal" font-size="36" text-anchor="start" direction="ltr" writing-mode="lr-tb" unicode-bidi="normal" text-decoration="none" transform="matrix(0.442516 0 0 0.441989 916.332 702)">P Curve</text><text fill="#000000" fill-opacity="1" font-family="Calibri,Calibri_MSFontService,sans-serif" font-style="normal" font-variant="normal" font-weight="400" font-stretch="normal" font-size="36" text-anchor="start" direction="ltr" writing-mode="lr-tb" unicode-bidi="normal" text-decoration="none" transform="matrix(0.442516 0 0 0.441989 903.174 742)">Crit. Point</text><path d="M408.287 228.95 408.287 238.208 407.624 238.208 407.624 228.95ZM410.608 237.324 407.956 242.628 405.304 237.324Z" fill="#000000" fill-rule="nonzero" fill-opacity="1" transform="matrix(1.00119 0 0 1 526.837 441.547)"/><path d="M408.287 268.287 408.287 277.545 407.624 277.545 407.624 268.287ZM410.608 276.661 407.956 281.965 405.304 276.661Z" fill="#000000" fill-rule="nonzero" fill-opacity="1" transform="matrix(1.00119 0 0 1 526.837 441.547)"/><text fill="#000000" fill-opacity="1" font-family="Calibri,Calibri_MSFontService,sans-serif" font-style="normal" font-variant="normal" font-weight="700" font-stretch="normal" font-size="36" text-anchor="start" direction="ltr" writing-mode="lr-tb" unicode-bidi="normal" text-decoration="none" transform="matrix(0.442516 0 0 0.441989 913.465 642)">Date 1</text><path d="M449.061 207.293 522.873 207.293 522.873 307.182 449.061 307.182Z" stroke="#000000" stroke-width="0.883978" stroke-linecap="square" stroke-linejoin="miter" stroke-miterlimit="8" stroke-dasharray="2.65193 0.883978" stroke-opacity="1" fill="#FFFFFF" fill-rule="nonzero" fill-opacity="1" transform="matrix(1.00119 0 0 1 526.837 441.547)"/><text fill="#000000" fill-opacity="1" font-family="Calibri,Calibri_MSFontService,sans-serif" font-style="normal" font-variant="normal" font-weight="400" font-stretch="normal" font-size="36" text-anchor="start" direction="ltr" writing-mode="lr-tb" unicode-bidi="normal" text-decoration="none" transform="matrix(0.442516 0 0 0.441989 998.874 663)">Data</text><text fill="#000000" fill-opacity="1" font-family="Calibri,Calibri_MSFontService,sans-serif" font-style="normal" font-variant="normal" font-weight="400" font-stretch="normal" font-size="36" text-anchor="start" direction="ltr" writing-mode="lr-tb" unicode-bidi="normal" text-decoration="none" transform="matrix(0.442516 0 0 0.441989 983.386 702)">L</text><text fill="#000000" fill-opacity="1" font-family="Calibri,Calibri_MSFontService,sans-serif" font-style="normal" font-variant="normal" font-weight="400" font-stretch="normal" font-size="36" text-anchor="start" direction="ltr" writing-mode="lr-tb" unicode-bidi="normal" text-decoration="none" transform="matrix(0.442516 0 0 0.441989 990.134 702)">-</text><text fill="#000000" fill-opacity="1" font-family="Calibri,Calibri_MSFontService,sans-serif" font-style="normal" font-variant="normal" font-weight="400" font-stretch="normal" font-size="36" text-anchor="start" direction="ltr" writing-mode="lr-tb" unicode-bidi="normal" text-decoration="none" transform="matrix(0.442516 0 0 0.441989 995.002 702)">P Curve</text><text fill="#000000" fill-opacity="1" font-family="Calibri,Calibri_MSFontService,sans-serif" font-style="normal" font-variant="normal" font-weight="400" font-stretch="normal" font-size="36" text-anchor="start" direction="ltr" writing-mode="lr-tb" unicode-bidi="normal" text-decoration="none" transform="matrix(0.442516 0 0 0.441989 981.841 742)">Crit. Point</text><path d="M486.961 228.95 486.961 238.208 486.298 238.208 486.298 228.95ZM489.282 237.324 486.63 242.628 483.978 237.324Z" fill="#000000" fill-rule="nonzero" fill-opacity="1" transform="matrix(1.00119 0 0 1 526.837 441.547)"/><path d="M486.961 268.287 486.961 277.545 486.298 277.545 486.298 268.287ZM489.282 276.661 486.63 281.965 483.978 276.661Z" fill="#000000" fill-rule="nonzero" fill-opacity="1" transform="matrix(1.00119 0 0 1 526.837 441.547)"/><text fill="#000000" fill-opacity="1" font-family="Calibri,Calibri_MSFontService,sans-serif" font-style="normal" font-variant="normal" font-weight="700" font-stretch="normal" font-size="36" text-anchor="start" direction="ltr" writing-mode="lr-tb" unicode-bidi="normal" text-decoration="none" transform="matrix(0.442516 0 0 0.441989 992.134 642)">Date 2</text><text fill="#000000" fill-opacity="1" font-family="Calibri,Calibri_MSFontService,sans-serif" font-style="normal" font-variant="normal" font-weight="700" font-stretch="normal" font-size="36" text-anchor="start" direction="ltr" writing-mode="lr-tb" unicode-bidi="normal" text-decoration="none" transform="matrix(0.442516 0 0 0.441989 1039.92 587)">Location 1</text><path d="M0 1.76796 37.5691 1.76796 37.5691 2.65193 0 2.65193Z" fill="#000000" fill-rule="evenodd" fill-opacity="1" transform="matrix(1.00119 0 0 1 927.396 796.906)"/><text fill="#000000" fill-opacity="1" font-family="Calibri,Calibri_MSFontService,sans-serif" font-style="normal" font-variant="normal" font-weight="700" font-stretch="normal" font-size="36" text-anchor="start" direction="ltr" writing-mode="lr-tb" unicode-bidi="normal" text-decoration="none" transform="matrix(0.442516 0 0 0.441989 927.396 797)">CNDC</text><text fill="#000000" fill-opacity="1" font-family="Calibri,Calibri_MSFontService,sans-serif" font-style="normal" font-variant="normal" font-weight="700" font-stretch="normal" font-size="36" text-anchor="start" direction="ltr" writing-mode="lr-tb" unicode-bidi="normal" text-decoration="none" transform="matrix(0.442516 0 0 0.441989 964.789 797)">: L1 x V1</text><path d="M0 1.76796 37.5691 1.76796 37.5691 2.65193 0 2.65193Z" fill="#000000" fill-rule="evenodd" fill-opacity="1" transform="matrix(1.00119 0 0 1 1043.67 826.961)"/><text fill="#000000" fill-opacity="1" font-family="Calibri,Calibri_MSFontService,sans-serif" font-style="normal" font-variant="normal" font-weight="700" font-stretch="normal" font-size="36" text-anchor="start" direction="ltr" writing-mode="lr-tb" unicode-bidi="normal" text-decoration="none" transform="matrix(0.442516 0 0 0.441989 1043.67 827)">CNDC</text><text fill="#000000" fill-opacity="1" font-family="Calibri,Calibri_MSFontService,sans-serif" font-style="normal" font-variant="normal" font-weight="700" font-stretch="normal" font-size="36" text-anchor="start" direction="ltr" writing-mode="lr-tb" unicode-bidi="normal" text-decoration="none" transform="matrix(0.442516 0 0 0.441989 1081.06 827)">: L1</text><path d="M0-0.441989 15.1363-0.441989 15.1363 38.2936 14.6943 37.8516 24.9688 37.8516 24.9688 38.7356 14.2523 38.7356 14.2523 0 14.6943 0.441989 0 0.441989ZM24.0848 35.6416 29.3886 38.2936 24.0848 40.9455Z" fill="#000000" fill-rule="nonzero" fill-opacity="1" transform="matrix(1.83916e-16 1 1.00119 -1.83697e-16 935.28 749.171)"/><path d="M0-0.441989 15.2016-0.441989 15.2016 138.403 14.7596 137.961 55.1549 137.961 55.1549 138.845 14.3177 138.845 14.3177 0 14.7596 0.441989 0 0.441989ZM54.2709 135.751 59.5748 138.403 54.2709 141.055Z" fill="#000000" fill-rule="nonzero" fill-opacity="1" transform="matrix(1.83916e-16 1 1.00119 -1.83697e-16 935.28 749.171)"/><path d="M487.134 307.624 487.134 322.761 446.409 322.761 446.851 322.319 446.851 332.593 445.967 332.593 445.967 321.877 486.692 321.877 486.25 322.319 486.25 307.624ZM449.061 331.709 446.409 337.013 443.757 331.709Z" fill="#000000" fill-rule="nonzero" fill-opacity="1" transform="matrix(1.00119 0 0 1 526.837 441.547)"/><path d="M556.906 152.486 735.028 152.486 735.028 364.641 556.906 364.641Z" stroke="#000000" stroke-width="0.883978" stroke-linecap="square" stroke-linejoin="miter" stroke-miterlimit="8" stroke-dasharray="2.65193 0.883978" stroke-opacity="1" fill="#A6A6A6" fill-rule="nonzero" fill-opacity="1" transform="matrix(1.00119 0 0 1 526.837 441.547)"/><path d="M562.652 182.099 728.84 182.099 728.84 312.928 562.652 312.928Z" stroke="#000000" stroke-width="0.883978" stroke-linecap="square" stroke-linejoin="miter" stroke-miterlimit="8" stroke-dasharray="2.65193 0.883978" stroke-opacity="1" fill="#D9D9D9" fill-rule="nonzero" fill-opacity="1" transform="matrix(1.00119 0 0 1 526.837 441.547)"/><text fill="#000000" fill-opacity="1" font-family="Calibri,Calibri_MSFontService,sans-serif" font-style="normal" font-variant="normal" font-weight="700" font-stretch="normal" font-size="36" text-anchor="start" direction="ltr" writing-mode="lr-tb" unicode-bidi="normal" text-decoration="none" transform="matrix(0.442516 0 0 0.441989 1144.5 615)">Variety 2</text><path d="M569.282 207.293 643.094 207.293 643.094 307.182 569.282 307.182Z" stroke="#000000" stroke-width="0.883978" stroke-linecap="square" stroke-linejoin="miter" stroke-miterlimit="8" stroke-dasharray="2.65193 0.883978" stroke-opacity="1" fill="#FFFFFF" fill-rule="nonzero" fill-opacity="1" transform="matrix(1.00119 0 0 1 526.837 441.547)"/><text fill="#000000" fill-opacity="1" font-family="Calibri,Calibri_MSFontService,sans-serif" font-style="normal" font-variant="normal" font-weight="400" font-stretch="normal" font-size="36" text-anchor="start" direction="ltr" writing-mode="lr-tb" unicode-bidi="normal" text-decoration="none" transform="matrix(0.442516 0 0 0.441989 1119.15 663)">Data</text><text fill="#000000" fill-opacity="1" font-family="Calibri,Calibri_MSFontService,sans-serif" font-style="normal" font-variant="normal" font-weight="400" font-stretch="normal" font-size="36" text-anchor="start" direction="ltr" writing-mode="lr-tb" unicode-bidi="normal" text-decoration="none" transform="matrix(0.442516 0 0 0.441989 1103.66 702)">L</text><text fill="#000000" fill-opacity="1" font-family="Calibri,Calibri_MSFontService,sans-serif" font-style="normal" font-variant="normal" font-weight="400" font-stretch="normal" font-size="36" text-anchor="start" direction="ltr" writing-mode="lr-tb" unicode-bidi="normal" text-decoration="none" transform="matrix(0.442516 0 0 0.441989 1110.41 702)">-</text><text fill="#000000" fill-opacity="1" font-family="Calibri,Calibri_MSFontService,sans-serif" font-style="normal" font-variant="normal" font-weight="400" font-stretch="normal" font-size="36" text-anchor="start" direction="ltr" writing-mode="lr-tb" unicode-bidi="normal" text-decoration="none" transform="matrix(0.442516 0 0 0.441989 1115.28 702)">P Curve</text><text fill="#000000" fill-opacity="1" font-family="Calibri,Calibri_MSFontService,sans-serif" font-style="normal" font-variant="normal" font-weight="400" font-stretch="normal" font-size="36" text-anchor="start" direction="ltr" writing-mode="lr-tb" unicode-bidi="normal" text-decoration="none" transform="matrix(0.442516 0 0 0.441989 1102.12 742)">Crit. Point</text><path d="M607.293 229.171 607.293 238.429 606.851 238.429 606.851 229.171ZM609.724 237.545 607.072 242.849 604.42 237.545Z" fill="#000000" fill-rule="nonzero" fill-opacity="1" transform="matrix(1.00119 0 0 1 526.837 441.547)"/><path d="M607.293 268.508 607.293 277.766 606.851 277.766 606.851 268.508ZM609.724 276.882 607.072 282.186 604.42 276.882Z" fill="#000000" fill-rule="nonzero" fill-opacity="1" transform="matrix(1.00119 0 0 1 526.837 441.547)"/><text fill="#000000" fill-opacity="1" font-family="Calibri,Calibri_MSFontService,sans-serif" font-style="normal" font-variant="normal" font-weight="700" font-stretch="normal" font-size="36" text-anchor="start" direction="ltr" writing-mode="lr-tb" unicode-bidi="normal" text-decoration="none" transform="matrix(0.442516 0 0 0.441989 1112.41 642)">Date 3</text><path d="M647.956 207.293 721.768 207.293 721.768 307.182 647.956 307.182Z" stroke="#000000" stroke-width="0.883978" stroke-linecap="square" stroke-linejoin="miter" stroke-miterlimit="8" stroke-dasharray="2.65193 0.883978" stroke-opacity="1" fill="#FFFFFF" fill-rule="nonzero" fill-opacity="1" transform="matrix(1.00119 0 0 1 526.837 441.547)"/><text fill="#000000" fill-opacity="1" font-family="Calibri,Calibri_MSFontService,sans-serif" font-style="normal" font-variant="normal" font-weight="400" font-stretch="normal" font-size="36" text-anchor="start" direction="ltr" writing-mode="lr-tb" unicode-bidi="normal" text-decoration="none" transform="matrix(0.442516 0 0 0.441989 1197.82 663)">Data</text><text fill="#000000" fill-opacity="1" font-family="Calibri,Calibri_MSFontService,sans-serif" font-style="normal" font-variant="normal" font-weight="400" font-stretch="normal" font-size="36" text-anchor="start" direction="ltr" writing-mode="lr-tb" unicode-bidi="normal" text-decoration="none" transform="matrix(0.442516 0 0 0.441989 1182.33 702)">L</text><text fill="#000000" fill-opacity="1" font-family="Calibri,Calibri_MSFontService,sans-serif" font-style="normal" font-variant="normal" font-weight="400" font-stretch="normal" font-size="36" text-anchor="start" direction="ltr" writing-mode="lr-tb" unicode-bidi="normal" text-decoration="none" transform="matrix(0.442516 0 0 0.441989 1189.08 702)">-</text><text fill="#000000" fill-opacity="1" font-family="Calibri,Calibri_MSFontService,sans-serif" font-style="normal" font-variant="normal" font-weight="400" font-stretch="normal" font-size="36" text-anchor="start" direction="ltr" writing-mode="lr-tb" unicode-bidi="normal" text-decoration="none" transform="matrix(0.442516 0 0 0.441989 1193.95 702)">P Curve</text><text fill="#000000" fill-opacity="1" font-family="Calibri,Calibri_MSFontService,sans-serif" font-style="normal" font-variant="normal" font-weight="400" font-stretch="normal" font-size="36" text-anchor="start" direction="ltr" writing-mode="lr-tb" unicode-bidi="normal" text-decoration="none" transform="matrix(0.442516 0 0 0.441989 1180.79 742)">Crit. Point</text><path d="M685.525 229.171 685.525 238.429 685.083 238.429 685.083 229.171ZM687.956 237.545 685.304 242.849 682.652 237.545Z" fill="#000000" fill-rule="nonzero" fill-opacity="1" transform="matrix(1.00119 0 0 1 526.837 441.547)"/><path d="M685.525 268.508 685.525 277.766 685.083 277.766 685.083 268.508ZM687.956 276.882 685.304 282.186 682.652 276.882Z" fill="#000000" fill-rule="nonzero" fill-opacity="1" transform="matrix(1.00119 0 0 1 526.837 441.547)"/><text fill="#000000" fill-opacity="1" font-family="Calibri,Calibri_MSFontService,sans-serif" font-style="normal" font-variant="normal" font-weight="700" font-stretch="normal" font-size="36" text-anchor="start" direction="ltr" writing-mode="lr-tb" unicode-bidi="normal" text-decoration="none" transform="matrix(0.442516 0 0 0.441989 1191.08 642)">Date 4</text><path d="M0 1.76796 37.5691 1.76796 37.5691 2.65193 0 2.65193Z" fill="#000000" fill-rule="evenodd" fill-opacity="1" transform="matrix(1.00119 0 0 1 1126.35 796.906)"/><text fill="#000000" fill-opacity="1" font-family="Calibri,Calibri_MSFontService,sans-serif" font-style="normal" font-variant="normal" font-weight="700" font-stretch="normal" font-size="36" text-anchor="start" direction="ltr" writing-mode="lr-tb" unicode-bidi="normal" text-decoration="none" transform="matrix(0.442516 0 0 0.441989 1126.35 797)">CNDC</text><text fill="#000000" fill-opacity="1" font-family="Calibri,Calibri_MSFontService,sans-serif" font-style="normal" font-variant="normal" font-weight="700" font-stretch="normal" font-size="36" text-anchor="start" direction="ltr" writing-mode="lr-tb" unicode-bidi="normal" text-decoration="none" transform="matrix(0.442516 0 0 0.441989 1163.74 797)">: L1 x V2</text><path d="M0-0.441989 15.1363-0.441989 15.1363 38.2936 14.6943 37.8516 24.9688 37.8516 24.9688 38.7356 14.2523 38.7356 14.2523 0 14.6943 0.441989 0 0.441989ZM24.0848 35.6416 29.3886 38.2936 24.0848 40.9455Z" fill="#000000" fill-rule="nonzero" fill-opacity="1" transform="matrix(1.83916e-16 1 1.00119 -1.83697e-16 1134.41 749.171)"/><path d="M685.587 307.624 685.587 322.761 644.862 322.761 645.304 322.319 645.304 332.593 644.42 332.593 644.42 321.877 685.145 321.877 684.703 322.319 684.703 307.624ZM647.514 331.709 644.862 337.013 642.21 331.709Z" fill="#000000" fill-rule="nonzero" fill-opacity="1" transform="matrix(1.00119 0 0 1 526.837 441.547)"/><path d="M0-0.441989 14.9794-0.441989 14.9794 59.8267 14.5374 59.3848 55.1549 59.3848 55.1549 60.2687 14.0954 60.2687 14.0954 0 14.5374 0.441989 0 0.441989ZM54.2709 57.1748 59.5748 59.8267 54.2709 62.4787Z" fill="#000000" fill-rule="nonzero" fill-opacity="1" transform="matrix(1.83916e-16 1 1.00119 -1.83697e-16 1014.05 749.171)"/><path d="M607.045 307.624 607.045 322.731 546.298 322.731 546.74 322.289 546.74 362.779 545.856 362.779 545.856 321.847 606.603 321.847 606.161 322.289 606.161 307.624ZM548.95 361.895 546.298 367.199 543.646 361.895Z" fill="#000000" fill-rule="nonzero" fill-opacity="1" transform="matrix(1.00119 0 0 1 526.837 441.547)"/><path d="M685.622 307.624 685.622 322.636 546.298 322.636 546.74 322.194 546.74 362.779 545.856 362.779 545.856 321.753 685.18 321.753 684.738 322.194 684.738 307.624ZM548.95 361.895 546.298 367.199 543.646 361.895Z" fill="#000000" fill-rule="nonzero" fill-opacity="1" transform="matrix(1.00119 0 0 1 526.837 441.547)"/><path d="M763.757 126.409 1152.27 126.409 1152.27 396.464 763.757 396.464Z" stroke="#000000" stroke-width="0.883978" stroke-linecap="square" stroke-linejoin="miter" stroke-miterlimit="8" stroke-dasharray="2.65193 0.883978" stroke-opacity="1" fill="#7F7F7F" fill-rule="nonzero" fill-opacity="1" transform="matrix(1.00119 0 0 1 526.837 441.547)"/><path d="M769.061 153.37 947.182 153.37 947.182 365.083 769.061 365.083Z" stroke="#000000" stroke-width="0.883978" stroke-linecap="square" stroke-linejoin="miter" stroke-miterlimit="8" stroke-dasharray="2.65193 0.883978" stroke-opacity="1" fill="#A6A6A6" fill-rule="nonzero" fill-opacity="1" transform="matrix(1.00119 0 0 1 526.837 441.547)"/><path d="M775.691 182.541 941.878 182.541 941.878 313.812 775.691 313.812Z" stroke="#000000" stroke-width="0.883978" stroke-linecap="square" stroke-linejoin="miter" stroke-miterlimit="8" stroke-dasharray="2.65193 0.883978" stroke-opacity="1" fill="#D9D9D9" fill-rule="nonzero" fill-opacity="1" transform="matrix(1.00119 0 0 1 526.837 441.547)"/><text fill="#000000" fill-opacity="1" font-family="Calibri,Calibri_MSFontService,sans-serif" font-style="normal" font-variant="normal" font-weight="700" font-stretch="normal" font-size="36" text-anchor="start" direction="ltr" writing-mode="lr-tb" unicode-bidi="normal" text-decoration="none" transform="matrix(0.442516 0 0 0.441989 1357.75 616)">Variety 3</text><path d="M782.32 207.735 856.133 207.735 856.133 307.624 782.32 307.624Z" stroke="#000000" stroke-width="0.883978" stroke-linecap="square" stroke-linejoin="miter" stroke-miterlimit="8" stroke-dasharray="2.65193 0.883978" stroke-opacity="1" fill="#FFFFFF" fill-rule="nonzero" fill-opacity="1" transform="matrix(1.00119 0 0 1 526.837 441.547)"/><text fill="#000000" fill-opacity="1" font-family="Calibri,Calibri_MSFontService,sans-serif" font-style="normal" font-variant="normal" font-weight="400" font-stretch="normal" font-size="36" text-anchor="start" direction="ltr" writing-mode="lr-tb" unicode-bidi="normal" text-decoration="none" transform="matrix(0.442516 0 0 0.441989 1332.4 663)">Data</text><text fill="#000000" fill-opacity="1" font-family="Calibri,Calibri_MSFontService,sans-serif" font-style="normal" font-variant="normal" font-weight="400" font-stretch="normal" font-size="36" text-anchor="start" direction="ltr" writing-mode="lr-tb" unicode-bidi="normal" text-decoration="none" transform="matrix(0.442516 0 0 0.441989 1316.91 703)">L</text><text fill="#000000" fill-opacity="1" font-family="Calibri,Calibri_MSFontService,sans-serif" font-style="normal" font-variant="normal" font-weight="400" font-stretch="normal" font-size="36" text-anchor="start" direction="ltr" writing-mode="lr-tb" unicode-bidi="normal" text-decoration="none" transform="matrix(0.442516 0 0 0.441989 1323.66 703)">-</text><text fill="#000000" fill-opacity="1" font-family="Calibri,Calibri_MSFontService,sans-serif" font-style="normal" font-variant="normal" font-weight="400" font-stretch="normal" font-size="36" text-anchor="start" direction="ltr" writing-mode="lr-tb" unicode-bidi="normal" text-decoration="none" transform="matrix(0.442516 0 0 0.441989 1328.53 703)">P Curve</text><text fill="#000000" fill-opacity="1" font-family="Calibri,Calibri_MSFontService,sans-serif" font-style="normal" font-variant="normal" font-weight="400" font-stretch="normal" font-size="36" text-anchor="start" direction="ltr" writing-mode="lr-tb" unicode-bidi="normal" text-decoration="none" transform="matrix(0.442516 0 0 0.441989 1315.37 743)">Crit. Point</text><path d="M819.779 229.392 819.779 238.65 819.116 238.65 819.116 229.392ZM822.099 237.766 819.448 243.07 816.796 237.766Z" fill="#000000" fill-rule="nonzero" fill-opacity="1" transform="matrix(1.00119 0 0 1 526.837 441.547)"/><path d="M819.779 268.729 819.779 277.987 819.116 277.987 819.116 268.729ZM822.099 277.103 819.448 282.407 816.796 277.103Z" fill="#000000" fill-rule="nonzero" fill-opacity="1" transform="matrix(1.00119 0 0 1 526.837 441.547)"/><text fill="#000000" fill-opacity="1" font-family="Calibri,Calibri_MSFontService,sans-serif" font-style="normal" font-variant="normal" font-weight="700" font-stretch="normal" font-size="36" text-anchor="start" direction="ltr" writing-mode="lr-tb" unicode-bidi="normal" text-decoration="none" transform="matrix(0.442516 0 0 0.441989 1325.66 642)">Date 5</text><path d="M860.994 207.735 934.807 207.735 934.807 307.624 860.994 307.624Z" stroke="#000000" stroke-width="0.883978" stroke-linecap="square" stroke-linejoin="miter" stroke-miterlimit="8" stroke-dasharray="2.65193 0.883978" stroke-opacity="1" fill="#FFFFFF" fill-rule="nonzero" fill-opacity="1" transform="matrix(1.00119 0 0 1 526.837 441.547)"/><text fill="#000000" fill-opacity="1" font-family="Calibri,Calibri_MSFontService,sans-serif" font-style="normal" font-variant="normal" font-weight="400" font-stretch="normal" font-size="36" text-anchor="start" direction="ltr" writing-mode="lr-tb" unicode-bidi="normal" text-decoration="none" transform="matrix(0.442516 0 0 0.441989 1411.07 663)">Data</text><text fill="#000000" fill-opacity="1" font-family="Calibri,Calibri_MSFontService,sans-serif" font-style="normal" font-variant="normal" font-weight="400" font-stretch="normal" font-size="36" text-anchor="start" direction="ltr" writing-mode="lr-tb" unicode-bidi="normal" text-decoration="none" transform="matrix(0.442516 0 0 0.441989 1395.58 703)">L</text><text fill="#000000" fill-opacity="1" font-family="Calibri,Calibri_MSFontService,sans-serif" font-style="normal" font-variant="normal" font-weight="400" font-stretch="normal" font-size="36" text-anchor="start" direction="ltr" writing-mode="lr-tb" unicode-bidi="normal" text-decoration="none" transform="matrix(0.442516 0 0 0.441989 1402.33 703)">-</text><text fill="#000000" fill-opacity="1" font-family="Calibri,Calibri_MSFontService,sans-serif" font-style="normal" font-variant="normal" font-weight="400" font-stretch="normal" font-size="36" text-anchor="start" direction="ltr" writing-mode="lr-tb" unicode-bidi="normal" text-decoration="none" transform="matrix(0.442516 0 0 0.441989 1407.2 703)">P Curve</text><text fill="#000000" fill-opacity="1" font-family="Calibri,Calibri_MSFontService,sans-serif" font-style="normal" font-variant="normal" font-weight="400" font-stretch="normal" font-size="36" text-anchor="start" direction="ltr" writing-mode="lr-tb" unicode-bidi="normal" text-decoration="none" transform="matrix(0.442516 0 0 0.441989 1394.04 743)">Crit. Point</text><path d="M898.453 229.392 898.453 238.65 897.79 238.65 897.79 229.392ZM900.773 237.766 898.122 243.07 895.47 237.766Z" fill="#000000" fill-rule="nonzero" fill-opacity="1" transform="matrix(1.00119 0 0 1 526.837 441.547)"/><path d="M898.453 268.729 898.453 277.987 897.79 277.987 897.79 268.729ZM900.773 277.103 898.122 282.407 895.47 277.103Z" fill="#000000" fill-rule="nonzero" fill-opacity="1" transform="matrix(1.00119 0 0 1 526.837 441.547)"/><text fill="#000000" fill-opacity="1" font-family="Calibri,Calibri_MSFontService,sans-serif" font-style="normal" font-variant="normal" font-weight="700" font-stretch="normal" font-size="36" text-anchor="start" direction="ltr" writing-mode="lr-tb" unicode-bidi="normal" text-decoration="none" transform="matrix(0.442516 0 0 0.441989 1404.33 642)">Date 6</text><text fill="#000000" fill-opacity="1" font-family="Calibri,Calibri_MSFontService,sans-serif" font-style="normal" font-variant="normal" font-weight="700" font-stretch="normal" font-size="36" text-anchor="start" direction="ltr" writing-mode="lr-tb" unicode-bidi="normal" text-decoration="none" transform="matrix(0.442516 0 0 0.441989 1452.12 587)">Location 2</text><path d="M0 1.76796 37.5691 1.76796 37.5691 2.65193 0 2.65193Z" fill="#000000" fill-rule="evenodd" fill-opacity="1" transform="matrix(1.00119 0 0 1 1339.59 797.348)"/><text fill="#000000" fill-opacity="1" font-family="Calibri,Calibri_MSFontService,sans-serif" font-style="normal" font-variant="normal" font-weight="700" font-stretch="normal" font-size="36" text-anchor="start" direction="ltr" writing-mode="lr-tb" unicode-bidi="normal" text-decoration="none" transform="matrix(0.442516 0 0 0.441989 1339.59 797)">CNDC</text><text fill="#000000" fill-opacity="1" font-family="Calibri,Calibri_MSFontService,sans-serif" font-style="normal" font-variant="normal" font-weight="700" font-stretch="normal" font-size="36" text-anchor="start" direction="ltr" writing-mode="lr-tb" unicode-bidi="normal" text-decoration="none" transform="matrix(0.442516 0 0 0.441989 1376.99 797)">: L2 x V3</text><path d="M0 1.76796 37.5691 1.76796 37.5691 2.65193 0 2.65193Z" fill="#000000" fill-rule="evenodd" fill-opacity="1" transform="matrix(1.00119 0 0 1 1455.86 827.845)"/><text fill="#000000" fill-opacity="1" font-family="Calibri,Calibri_MSFontService,sans-serif" font-style="normal" font-variant="normal" font-weight="700" font-stretch="normal" font-size="36" text-anchor="start" direction="ltr" writing-mode="lr-tb" unicode-bidi="normal" text-decoration="none" transform="matrix(0.442516 0 0 0.441989 1455.86 828)">CNDC</text><text fill="#000000" fill-opacity="1" font-family="Calibri,Calibri_MSFontService,sans-serif" font-style="normal" font-variant="normal" font-weight="700" font-stretch="normal" font-size="36" text-anchor="start" direction="ltr" writing-mode="lr-tb" unicode-bidi="normal" text-decoration="none" transform="matrix(0.442516 0 0 0.441989 1493.25 828)">: L2</text><path d="M0-0.441989 15.1363-0.441989 15.1363 38.2936 14.6943 37.8516 24.9688 37.8516 24.9688 38.7356 14.2523 38.7356 14.2523 0 14.6943 0.441989 0 0.441989ZM24.0848 35.6416 29.3886 38.2936 24.0848 40.9455Z" fill="#000000" fill-rule="nonzero" fill-opacity="1" transform="matrix(1.83916e-16 1 1.00119 -1.83697e-16 1347.26 750.055)"/><path d="M0-0.441989 15.2016-0.441989 15.2016 138.403 14.7596 137.961 55.1549 137.961 55.1549 138.845 14.3177 138.845 14.3177 0 14.7596 0.441989 0 0.441989ZM54.2709 135.751 59.5748 138.403 54.2709 141.055Z" fill="#000000" fill-rule="nonzero" fill-opacity="1" transform="matrix(1.83916e-16 1 1.00119 -1.83697e-16 1347.26 750.055)"/><path d="M898.625 308.508 898.625 323.645 857.901 323.645 858.343 323.203 858.343 333.477 857.459 333.477 857.459 322.761 898.183 322.761 897.741 323.203 897.741 308.508ZM860.552 332.593 857.901 337.897 855.249 332.593Z" fill="#000000" fill-rule="nonzero" fill-opacity="1" transform="matrix(1.00119 0 0 1 526.837 441.547)"/><path d="M968.398 153.37 1146.52 153.37 1146.52 365.083 968.398 365.083Z" stroke="#000000" stroke-width="0.883978" stroke-linecap="square" stroke-linejoin="miter" stroke-miterlimit="8" stroke-dasharray="2.65193 0.883978" stroke-opacity="1" fill="#A6A6A6" fill-rule="nonzero" fill-opacity="1" transform="matrix(1.00119 0 0 1 526.837 441.547)"/><path d="M974.586 182.541 1140.77 182.541 1140.77 313.812 974.586 313.812Z" stroke="#000000" stroke-width="0.883978" stroke-linecap="square" stroke-linejoin="miter" stroke-miterlimit="8" stroke-dasharray="2.65193 0.883978" stroke-opacity="1" fill="#D9D9D9" fill-rule="nonzero" fill-opacity="1" transform="matrix(1.00119 0 0 1 526.837 441.547)"/><text fill="#000000" fill-opacity="1" font-family="Calibri,Calibri_MSFontService,sans-serif" font-style="normal" font-variant="normal" font-weight="700" font-stretch="normal" font-size="36" text-anchor="start" direction="ltr" writing-mode="lr-tb" unicode-bidi="normal" text-decoration="none" transform="matrix(0.442516 0 0 0.441989 1556.7 616)">Variety 4</text><path d="M981.215 207.735 1055.03 207.735 1055.03 307.624 981.215 307.624Z" stroke="#000000" stroke-width="0.883978" stroke-linecap="square" stroke-linejoin="miter" stroke-miterlimit="8" stroke-dasharray="2.65193 0.883978" stroke-opacity="1" fill="#FFFFFF" fill-rule="nonzero" fill-opacity="1" transform="matrix(1.00119 0 0 1 526.837 441.547)"/><text fill="#000000" fill-opacity="1" font-family="Calibri,Calibri_MSFontService,sans-serif" font-style="normal" font-variant="normal" font-weight="400" font-stretch="normal" font-size="36" text-anchor="start" direction="ltr" writing-mode="lr-tb" unicode-bidi="normal" text-decoration="none" transform="matrix(0.442516 0 0 0.441989 1531.34 663)">Data</text><text fill="#000000" fill-opacity="1" font-family="Calibri,Calibri_MSFontService,sans-serif" font-style="normal" font-variant="normal" font-weight="400" font-stretch="normal" font-size="36" text-anchor="start" direction="ltr" writing-mode="lr-tb" unicode-bidi="normal" text-decoration="none" transform="matrix(0.442516 0 0 0.441989 1515.86 703)">L</text><text fill="#000000" fill-opacity="1" font-family="Calibri,Calibri_MSFontService,sans-serif" font-style="normal" font-variant="normal" font-weight="400" font-stretch="normal" font-size="36" text-anchor="start" direction="ltr" writing-mode="lr-tb" unicode-bidi="normal" text-decoration="none" transform="matrix(0.442516 0 0 0.441989 1522.61 703)">-</text><text fill="#000000" fill-opacity="1" font-family="Calibri,Calibri_MSFontService,sans-serif" font-style="normal" font-variant="normal" font-weight="400" font-stretch="normal" font-size="36" text-anchor="start" direction="ltr" writing-mode="lr-tb" unicode-bidi="normal" text-decoration="none" transform="matrix(0.442516 0 0 0.441989 1527.47 703)">P Curve</text><text fill="#000000" fill-opacity="1" font-family="Calibri,Calibri_MSFontService,sans-serif" font-style="normal" font-variant="normal" font-weight="400" font-stretch="normal" font-size="36" text-anchor="start" direction="ltr" writing-mode="lr-tb" unicode-bidi="normal" text-decoration="none" transform="matrix(0.442516 0 0 0.441989 1514.32 743)">Crit. Point</text><path d="M1018.78 229.613 1018.78 238.871 1018.34 238.871 1018.34 229.613ZM1021.22 237.987 1018.56 243.291 1015.91 237.987Z" fill="#000000" fill-rule="nonzero" fill-opacity="1" transform="matrix(1.00119 0 0 1 526.837 441.547)"/><path d="M1018.78 268.95 1018.78 278.208 1018.34 278.208 1018.34 268.95ZM1021.22 277.324 1018.56 282.628 1015.91 277.324Z" fill="#000000" fill-rule="nonzero" fill-opacity="1" transform="matrix(1.00119 0 0 1 526.837 441.547)"/><text fill="#000000" fill-opacity="1" font-family="Calibri,Calibri_MSFontService,sans-serif" font-style="normal" font-variant="normal" font-weight="700" font-stretch="normal" font-size="36" text-anchor="start" direction="ltr" writing-mode="lr-tb" unicode-bidi="normal" text-decoration="none" transform="matrix(0.442516 0 0 0.441989 1524.61 642)">Date 7</text><path d="M1059.45 207.735 1133.26 207.735 1133.26 307.624 1059.45 307.624Z" stroke="#000000" stroke-width="0.883978" stroke-linecap="square" stroke-linejoin="miter" stroke-miterlimit="8" stroke-dasharray="2.65193 0.883978" stroke-opacity="1" fill="#FFFFFF" fill-rule="nonzero" fill-opacity="1" transform="matrix(1.00119 0 0 1 526.837 441.547)"/><text fill="#000000" fill-opacity="1" font-family="Calibri,Calibri_MSFontService,sans-serif" font-style="normal" font-variant="normal" font-weight="400" font-stretch="normal" font-size="36" text-anchor="start" direction="ltr" writing-mode="lr-tb" unicode-bidi="normal" text-decoration="none" transform="matrix(0.442516 0 0 0.441989 1610.02 663)">Data</text><text fill="#000000" fill-opacity="1" font-family="Calibri,Calibri_MSFontService,sans-serif" font-style="normal" font-variant="normal" font-weight="400" font-stretch="normal" font-size="36" text-anchor="start" direction="ltr" writing-mode="lr-tb" unicode-bidi="normal" text-decoration="none" transform="matrix(0.442516 0 0 0.441989 1594.53 703)">L</text><text fill="#000000" fill-opacity="1" font-family="Calibri,Calibri_MSFontService,sans-serif" font-style="normal" font-variant="normal" font-weight="400" font-stretch="normal" font-size="36" text-anchor="start" direction="ltr" writing-mode="lr-tb" unicode-bidi="normal" text-decoration="none" transform="matrix(0.442516 0 0 0.441989 1601.28 703)">-</text><text fill="#000000" fill-opacity="1" font-family="Calibri,Calibri_MSFontService,sans-serif" font-style="normal" font-variant="normal" font-weight="400" font-stretch="normal" font-size="36" text-anchor="start" direction="ltr" writing-mode="lr-tb" unicode-bidi="normal" text-decoration="none" transform="matrix(0.442516 0 0 0.441989 1606.14 703)">P Curve</text><text fill="#000000" fill-opacity="1" font-family="Calibri,Calibri_MSFontService,sans-serif" font-style="normal" font-variant="normal" font-weight="400" font-stretch="normal" font-size="36" text-anchor="start" direction="ltr" writing-mode="lr-tb" unicode-bidi="normal" text-decoration="none" transform="matrix(0.442516 0 0 0.441989 1592.99 743)">Crit. Point</text><path d="M1097.46 229.613 1097.46 238.871 1097.02 238.871 1097.02 229.613ZM1099.89 237.987 1097.24 243.291 1094.59 237.987Z" fill="#000000" fill-rule="nonzero" fill-opacity="1" transform="matrix(1.00119 0 0 1 526.837 441.547)"/><path d="M1097.46 268.95 1097.46 278.208 1097.02 278.208 1097.02 268.95ZM1099.89 277.324 1097.24 282.628 1094.59 277.324Z" fill="#000000" fill-rule="nonzero" fill-opacity="1" transform="matrix(1.00119 0 0 1 526.837 441.547)"/><text fill="#000000" fill-opacity="1" font-family="Calibri,Calibri_MSFontService,sans-serif" font-style="normal" font-variant="normal" font-weight="700" font-stretch="normal" font-size="36" text-anchor="start" direction="ltr" writing-mode="lr-tb" unicode-bidi="normal" text-decoration="none" transform="matrix(0.442516 0 0 0.441989 1603.28 642)">Date 8</text><path d="M0 1.76796 37.5691 1.76796 37.5691 2.65193 0 2.65193Z" fill="#000000" fill-rule="evenodd" fill-opacity="1" transform="matrix(1.00119 0 0 1 1538.54 797.348)"/><text fill="#000000" fill-opacity="1" font-family="Calibri,Calibri_MSFontService,sans-serif" font-style="normal" font-variant="normal" font-weight="700" font-stretch="normal" font-size="36" text-anchor="start" direction="ltr" writing-mode="lr-tb" unicode-bidi="normal" text-decoration="none" transform="matrix(0.442516 0 0 0.441989 1538.54 797)">CNDC</text><text fill="#000000" fill-opacity="1" font-family="Calibri,Calibri_MSFontService,sans-serif" font-style="normal" font-variant="normal" font-weight="700" font-stretch="normal" font-size="36" text-anchor="start" direction="ltr" writing-mode="lr-tb" unicode-bidi="normal" text-decoration="none" transform="matrix(0.442516 0 0 0.441989 1575.93 797)">: L2 x V4</text><path d="M0-0.441989 15.1363-0.441989 15.1363 38.2936 14.6943 37.8516 24.9688 37.8516 24.9688 38.7356 14.2523 38.7356 14.2523 0 14.6943 0.441989 0 0.441989ZM24.0848 35.6416 29.3886 38.2936 24.0848 40.9455Z" fill="#000000" fill-rule="nonzero" fill-opacity="1" transform="matrix(1.83916e-16 1 1.00119 -1.83697e-16 1546.39 750.055)"/><path d="M1097.52 308.508 1097.52 323.645 1056.8 323.645 1057.24 323.203 1057.24 333.477 1056.35 333.477 1056.35 322.761 1097.08 322.761 1096.64 323.203 1096.64 308.508ZM1059.45 332.593 1056.8 337.897 1054.14 332.593Z" fill="#000000" fill-rule="nonzero" fill-opacity="1" transform="matrix(1.00119 0 0 1 526.837 441.547)"/><path d="M0-0.441989 14.9794-0.441989 14.9794 59.8267 14.5374 59.3848 55.1549 59.3848 55.1549 60.2687 14.0954 60.2687 14.0954 0 14.5374 0.441989 0 0.441989ZM54.2709 57.1748 59.5748 59.8267 54.2709 62.4787Z" fill="#000000" fill-rule="nonzero" fill-opacity="1" transform="matrix(1.83916e-16 1 1.00119 -1.83697e-16 1426.03 750.055)"/><path d="M1018.98 308.508 1018.98 323.615 958.232 323.615 958.674 323.173 958.674 363.663 957.79 363.663 957.79 322.731 1018.54 322.731 1018.09 323.173 1018.09 308.508ZM960.884 362.779 958.232 368.083 955.58 362.779Z" fill="#000000" fill-rule="nonzero" fill-opacity="1" transform="matrix(1.00119 0 0 1 526.837 441.547)"/><path d="M1097.56 308.508 1097.56 323.52 958.232 323.52 958.674 323.078 958.674 363.663 957.79 363.663 957.79 322.636 1097.11 322.636 1096.67 323.078 1096.67 308.508ZM960.884 362.779 958.232 368.083 955.58 362.779Z" fill="#000000" fill-rule="nonzero" fill-opacity="1" transform="matrix(1.00119 0 0 1 526.837 441.547)"/><path d="M0 1.76796 37.5691 1.76796 37.5691 2.65193 0 2.65193Z" fill="#000000" fill-rule="evenodd" fill-opacity="1" transform="matrix(1.00119 0 0 1 1261.26 864.972)"/><text fill="#000000" fill-opacity="1" font-family="Calibri,Calibri_MSFontService,sans-serif" font-style="normal" font-variant="normal" font-weight="700" font-stretch="normal" font-size="36" text-anchor="start" direction="ltr" writing-mode="lr-tb" unicode-bidi="normal" text-decoration="none" transform="matrix(0.442516 0 0 0.441989 1261.26 865)">CNDC</text><path d="M0-0.441989 15.1718-0.441989 15.1718 344.306 14.7298 343.864 93.2977 343.864 93.2977 344.748 14.2878 344.748 14.2878 0 14.7298 0.441989 0 0.441989ZM92.4137 341.654 97.7176 344.306 92.4137 346.958Z" fill="#000000" fill-rule="nonzero" fill-opacity="1" transform="matrix(1.83916e-16 1 1.00119 -1.83697e-16 935.28 749.171)"/><path d="M0-0.441989 15.1719-0.441989 15.1719 265.729 14.7299 265.288 93.2977 265.288 93.2977 266.172 14.288 266.172 14.288 0 14.7299 0.441989 0 0.441989ZM92.4137 263.078 97.7176 265.729 92.4137 268.381Z" fill="#000000" fill-rule="nonzero" fill-opacity="1" transform="matrix(1.83916e-16 1 1.00119 -1.83697e-16 1014.05 749.171)"/><path d="M0-0.441989 15.1709-0.441989 15.1709 145.596 14.7289 145.154 93.2972 145.154 93.2972 146.038 14.2869 146.038 14.2869 0 14.7289 0.441989 0 0.441989ZM92.4137 142.945 97.7176 145.596 92.4137 148.248Z" fill="#000000" fill-rule="nonzero" fill-opacity="1" transform="matrix(1.83916e-16 1 1.00119 -1.83697e-16 1134.41 749.171)"/><path d="M0-0.441989 15.1719-0.441989 15.1719 67.0201 14.7299 66.5781 93.2977 66.5781 93.2977 67.4621 14.288 67.4621 14.288 0 14.7299 0.441989 0 0.441989ZM92.4137 64.3682 97.7176 67.0201 92.4137 69.672Z" fill="#000000" fill-rule="nonzero" fill-opacity="1" transform="matrix(1.83916e-16 1 1.00119 -1.83697e-16 1212.74 749.171)"/><path d="M820.106 308.508 820.106 323.326 752.265 323.326 752.707 322.884 752.707 401.099 751.823 401.099 751.823 322.442 819.664 322.442 819.222 322.884 819.222 308.508ZM754.917 400.215 752.265 405.519 749.613 400.215Z" fill="#000000" fill-rule="nonzero" fill-opacity="1" transform="matrix(1.00119 0 0 1 526.837 441.547)"/><path d="M898.683 308.508 898.683 323.475 752.265 323.475 752.707 323.033 752.707 401.099 751.823 401.099 751.823 322.591 898.241 322.591 897.799 323.033 897.799 308.508ZM754.917 400.215 752.265 405.519 749.613 400.215Z" fill="#000000" fill-rule="nonzero" fill-opacity="1" transform="matrix(1.00119 0 0 1 526.837 441.547)"/><path d="M1018.82 308.508 1018.82 323.475 752.265 323.475 752.707 323.033 752.707 401.099 751.823 401.099 751.823 322.591 1018.37 322.591 1017.93 323.033 1017.93 308.508ZM754.917 400.215 752.265 405.519 749.613 400.215Z" fill="#000000" fill-rule="nonzero" fill-opacity="1" transform="matrix(1.00119 0 0 1 526.837 441.547)"/><path d="M1097.39 308.508 1097.39 323.474 752.265 323.474 752.707 323.032 752.707 401.099 751.823 401.099 751.823 322.59 1096.95 322.59 1096.51 323.032 1096.51 308.508ZM754.917 400.215 752.265 405.519 749.613 400.215Z" fill="#000000" fill-rule="nonzero" fill-opacity="1" transform="matrix(1.00119 0 0 1 526.837 441.547)"/></g></svg>